<svg id="Layer_1" fill="lightblue" enable-background="new 0 0 91 91" viewBox="0 0 91 91" xmlns="http://www.w3.org/2000/svg"><g><path d="m13.7 70.8c4.2 0 8-1.9 10.5-5.1 2.5 3.2 6.4 5.2 10.6 5.2s8-1.9 10.5-5.1c2.5 3.2 6.4 5.1 10.6 5.1s8-1.9 10.5-5.1c2.5 3.2 6.4 5.1 10.6 5.1 5.5 0 10.4-3.3 12.5-8.5.4-1.1-.1-2.3-1.2-2.7s-2.3.1-2.7 1.2c-1.4 3.6-4.8 5.9-8.6 5.9s-7.2-2.3-8.6-5.8c-.2-.5-.6-1-1.2-1.2-1.1-.4-2.3.1-2.7 1.2-1.4 3.6-4.8 5.9-8.6 5.9s-7.2-2.3-8.6-5.8c-.2-.5-.6-1-1.2-1.2-1.1-.4-2.3.1-2.7 1.2-1.4 3.6-4.8 5.9-8.6 5.9s-7.1-2.3-8.6-5.7c-.2-.6-.6-1.1-1.2-1.3-1.1-.4-2.3.1-2.7 1.2-1.4 3.6-4.8 5.9-8.6 5.9s-7.2-2.3-8.6-5.9c-.4-1.1-1.7-1.6-2.7-1.2-1.1.4-1.6 1.7-1.2 2.7 2 4.7 7 8.1 12.5 8.1z"></path><path d="m24.2 84.3c2.5 3.2 6.4 5.1 10.6 5.1s8-1.9 10.5-5.1c2.5 3.2 6.4 5.1 10.6 5.1s8-1.9 10.5-5.1c2.5 3.2 6.4 5.1 10.6 5.1 5.5 0 10.4-3.3 12.5-8.5.4-1.1-.1-2.3-1.2-2.7s-2.3.1-2.7 1.2c-1.4 3.6-4.8 5.9-8.6 5.9s-7.2-2.3-8.6-5.8c-.2-.5-.6-1-1.2-1.2-1.1-.4-2.3.1-2.7 1.2-1.4 3.6-4.8 5.9-8.6 5.9s-7.2-2.3-8.6-5.8c-.2-.5-.6-1-1.2-1.2-1.1-.4-2.3.1-2.7 1.2-1.4 3.6-4.8 5.9-8.6 5.9s-7.1-2.3-8.6-5.7c-.2-.6-.6-1.1-1.2-1.3-1.1-.4-2.3.1-2.7 1.2-1.4 3.6-4.8 5.9-8.6 5.9s-7.2-2.3-8.6-5.9c-.4-1.1-1.7-1.6-2.7-1.2-1.1.4-1.6 1.7-1.2 2.7 2.1 5.1 7 8.5 12.5 8.5 4.2-.4 8-2.3 10.5-5.4z"></path><path d="m36.5 58.7c1.2 0 2.1-.9 2.1-2.1v-21.1l3.5 3.5c.4.4.9.6 1.5.6.5 0 1.1-.2 1.5-.6.8-.8.8-2.1 0-3l-7.2-7c-.8-.8-2.1-.8-3 0l-7 7c-.8.8-.8 2.1 0 3s2.1.8 3 0l3.5-3.5v21.1c0 1.2.9 2.1 2.1 2.1z"></path><path d="m53.5 33.8c1.2 0 2.1-.9 2.1-2.1v-24.2l3.5 3.5c.4.4.9.6 1.5.6.5 0 1.1-.2 1.5-.6.8-.8.8-2.1 0-3l-7.1-7c-.8-.8-2.1-.8-3 0l-7 7.1c-.8.8-.8 2.1 0 3s2.1.8 3 0l3.5-3.5v24.2c-.1 1.1.9 2 2 2z"></path><path d="m7.5 21.1 3.5-3.5v18.3c0 1.2.9 2.1 2.1 2.1s2.1-.9 2.1-2.1v-18.3l3.5 3.5c.4.4.9.6 1.5.6s1.1-.2 1.5-.6c.8-.8.8-2.1 0-3l-7.1-7.1c-.8-.8-2.1-.8-3 0l-7.1 7.1c-.8.8-.8 2.1 0 3s2.2.9 3 0z"></path><path d="m70.2 30.6c.8.8 2.1.8 3 0l3.5-3.5v13.7c0 1.2.9 2.1 2.1 2.1s2.1-.9 2.1-2.1v-13.7l3.5 3.5c.4.4.9.6 1.5.6.5 0 1.1-.2 1.5-.6.8-.8.8-2.1 0-3l-7.1-7.1c-.8-.8-2.1-.8-3 0l-7.1 7.1c-.9.8-.9 2.2 0 3z"></path><path d="m78.7 47.2c-1.2 0-2.1.9-2.1 2.1v2.4c0 1.2.9 2.1 2.1 2.1s2.1-.9 2.1-2.1v-2.4c0-1.1-.9-2.1-2.1-2.1z"></path><path d="m13.1 43.6c-1.2 0-2.1.9-2.1 2.1v2.2c0 1.2.9 2.1 2.1 2.1s2.1-.9 2.1-2.1v-2.2c0-1.1-.9-2.1-2.1-2.1z"></path></g></svg>