<svg id="Layer_1" fill="lightblue" enable-background="new 0 0 512.001 512.001" viewBox="0 0 512.001 512.001" xmlns="http://www.w3.org/2000/svg"><g><path d="m437.021 74.981c-48.353-48.352-112.64-74.981-181.02-74.981-68.381 0-132.668 26.629-181.021 74.981-48.351 48.352-74.98 112.64-74.98 181.019s26.629 132.667 74.98 181.02c48.353 48.352 112.64 74.98 181.021 74.98 68.38 0 132.667-26.629 181.02-74.98 48.352-48.353 74.98-112.64 74.98-181.02s-26.629-132.667-74.98-181.019zm-21.214 340.825c-42.686 42.687-99.439 66.194-159.806 66.194s-117.121-23.507-159.807-66.194c-42.686-42.685-66.194-99.438-66.194-159.806s23.508-117.12 66.194-159.805c42.686-42.687 99.44-66.195 159.807-66.195s117.12 23.508 159.806 66.194c42.687 42.686 66.194 99.438 66.194 159.806s-23.508 117.121-66.194 159.806z"></path><path d="m256.001 58.687c-108.799 0-197.313 88.515-197.313 197.313 0 52.705 20.524 102.255 57.792 139.521l10.606 10.606 36.99-36.991-21.213-21.213-15.312 15.313c-21.965-26.218-35.195-58.163-38.202-92.236h21.652v-30h-21.634c3.115-34.886 16.977-66.723 38.252-92.167l15.244 15.244 21.213-21.213-15.244-15.244c25.444-21.275 57.281-35.138 92.168-38.253v21.633h30v-21.633c34.887 3.115 66.724 16.978 92.168 38.253l-15.244 15.244 21.213 21.213 15.244-15.244c21.275 25.444 35.138 57.281 38.253 92.168h-21.634v30h21.652c-3.008 34.072-16.238 66.017-38.203 92.236l-15.313-15.313-21.213 21.213 36.991 36.991 10.606-10.606c37.268-37.268 57.792-86.817 57.792-139.521.002-108.799-88.512-197.314-197.311-197.314z"></path><path d="m275.139 215.65c-5.804-2.764-12.292-4.316-19.138-4.316-24.63 0-44.667 20.037-44.667 44.667 0 6.845 1.552 13.333 4.316 19.138l-34.59 34.589 21.213 21.213 34.589-34.589c5.804 2.764 12.293 4.316 19.138 4.316 24.629 0 44.666-20.037 44.666-44.667 0-6.845-1.552-13.333-4.316-19.137l46.35-46.35-21.212-21.214zm-19.138 55.017c-8.087 0-14.667-6.579-14.667-14.667s6.58-14.667 14.667-14.667 14.666 6.579 14.666 14.667-6.579 14.667-14.666 14.667z"></path><path d="m186.334 385.333h142v30h-142z"></path></g></svg>